<svg xmlns="http://www.w3.org/2000/svg" width="320" height="320" viewBox="0 0 320 320" version="1.1"><path d="M 148 35.625 C 119.816 39.207, 98.556 48.247, 78.270 65.275 C 57.098 83.046, 43.642 105.427, 36.349 135 C 33.702 145.736, 33.705 177.032, 36.355 188.500 C 40.458 206.258, 48.250 223.021, 59.435 238.146 C 66.362 247.515, 69.416 249.937, 67.978 244.925 C 65.365 235.812, 64.877 227.093, 66.467 217.885 C 69.478 200.435, 79.041 185.414, 93.461 175.482 L 98.919 171.724 95.127 168.977 C 90.343 165.512, 85.967 160.226, 83.056 154.398 C 81.810 151.903, 79.702 149.366, 78.371 148.759 C 75.753 147.566, 72 142.230, 72 139.699 C 72 137.335, 68.261 136.599, 65.486 138.417 C 62.132 140.615, 59.389 140.394, 57.557 137.777 C 55.314 134.576, 55.635 131.692, 58.536 128.966 C 61.047 126.608, 61.105 126.602, 64.421 128.387 C 68.803 130.747, 71.353 130.187, 71.992 126.724 C 72.674 123.031, 77.625 117, 79.975 117 C 81.062 117, 82.162 116.044, 82.563 114.750 C 87.425 99.074, 102.609 81.811, 118.226 74.205 C 131.170 67.900, 136.460 67, 160.567 67 C 184.297 67, 189.508 67.949, 202.999 74.731 C 217.655 82.098, 232.750 99.639, 237.437 114.750 C 237.838 116.044, 238.938 117, 240.025 117 C 242.375 117, 247.326 123.031, 248.008 126.724 C 248.647 130.187, 251.197 130.747, 255.579 128.387 C 258.895 126.602, 258.953 126.608, 261.464 128.966 C 264.365 131.692, 264.686 134.576, 262.443 137.777 C 260.611 140.394, 257.868 140.615, 254.514 138.417 C 251.739 136.599, 248 137.335, 248 139.699 C 248 142.230, 244.247 147.566, 241.629 148.759 C 240.298 149.366, 238.150 152.026, 236.855 154.671 C 234.504 159.472, 225.841 169.244, 223 170.299 C 221.361 170.908, 223.725 173.403, 232.107 179.911 C 247.299 191.705, 256.867 215.586, 253.994 234.537 C 253.374 238.630, 252.486 243.305, 252.022 244.925 C 250.584 249.937, 253.638 247.515, 260.565 238.146 C 268.443 227.492, 274.117 217.133, 278.447 205.500 C 284.402 189.501, 285.493 182.690, 285.497 161.500 C 285.500 141.269, 284.761 136.326, 279.287 120 C 265.344 78.414, 227.778 45.899, 184 37.525 C 175.478 35.895, 154.560 34.791, 148 35.625 M 115.635 105.016 C 109.134 108.249, 105.582 111.519, 102.474 117.130 C 99.827 121.910, 99.501 123.433, 99.509 131 C 99.515 137.333, 99.989 140.392, 101.369 143 C 104.120 148.200, 109.915 153.865, 115 156.324 C 119.397 158.450, 120.439 158.500, 160.500 158.500 C 200.645 158.500, 201.583 158.455, 205.500 156.335 C 210.250 153.763, 216.056 147.867, 218.631 143 C 220.011 140.392, 220.485 137.333, 220.491 131 C 220.499 123.509, 220.161 121.888, 217.641 117.341 C 214.835 112.280, 209.922 107.993, 203.119 104.673 C 200.143 103.220, 194.921 103.026, 159.619 103.058 C 122.089 103.091, 119.251 103.218, 115.635 105.016 M 153.550 106.919 C 152.565 108.513, 158.958 109.241, 166.871 108.436 C 174.116 107.698, 174.299 107.620, 170.500 106.887 C 164.873 105.801, 154.229 105.821, 153.550 106.919 M 125.455 121.455 C 123.286 123.623, 123 124.781, 123 131.382 C 123 138.264, 123.208 139.019, 125.635 140.927 C 129.041 143.607, 131.139 143.545, 133.826 140.686 C 135.669 138.724, 136 137.200, 136 130.686 C 136 124.333, 135.653 122.653, 134 121 C 131.325 118.325, 128.430 118.479, 125.455 121.455 M 186 121 C 184.336 122.664, 184 124.333, 184 130.927 C 184 138.300, 184.184 139, 186.635 140.927 C 190.049 143.613, 191.551 143.540, 194.545 140.545 C 196.718 138.373, 197 137.223, 197 130.545 C 197 122.138, 195.234 119, 190.500 119 C 189.125 119, 187.100 119.900, 186 121 M 227.746 251.192 C 226.781 253.011, 224.933 257.650, 223.639 261.500 C 222.345 265.350, 220.948 269.288, 220.536 270.250 C 219.488 272.695, 221.308 272.470, 225.770 269.603 C 230.428 266.610, 233.558 262.963, 232.193 262.119 C 231.638 261.776, 230.805 258.433, 230.342 254.690 L 229.500 247.884 227.746 251.192 M 89.498 255.081 C 89.092 258.611, 88.312 261.783, 87.765 262.130 C 86.389 263.001, 91.097 268.072, 95.453 270.411 C 97.410 271.462, 99.192 272.137, 99.411 271.911 C 100.139 271.162, 93.924 253.545, 92.063 251.081 L 90.236 248.661 89.498 255.081" stroke="none" fill="#585858" fill-rule="evenodd"/><path d="M -0 160.003 L -0 320.006 160.250 319.753 L 320.500 319.500 320.753 159.750 L 321.006 -0 160.503 -0 L 0 0 -0 160.003 M 0.488 160.500 C 0.488 248.500, 0.606 284.352, 0.750 240.171 C 0.894 195.990, 0.894 123.990, 0.750 80.171 C 0.606 36.352, 0.488 72.500, 0.488 160.500 M 148 35.625 C 119.816 39.207, 98.556 48.247, 78.270 65.275 C 57.098 83.046, 43.642 105.427, 36.349 135 C 33.702 145.736, 33.705 177.032, 36.355 188.500 C 40.458 206.258, 48.250 223.021, 59.435 238.146 C 66.362 247.515, 69.416 249.937, 67.978 244.925 C 65.365 235.812, 64.877 227.093, 66.467 217.885 C 69.478 200.435, 79.041 185.414, 93.461 175.482 L 98.919 171.724 95.127 168.977 C 90.343 165.512, 85.967 160.226, 83.056 154.398 C 81.810 151.903, 79.702 149.366, 78.371 148.759 C 75.753 147.566, 72 142.230, 72 139.699 C 72 137.335, 68.261 136.599, 65.486 138.417 C 62.132 140.615, 59.389 140.394, 57.557 137.777 C 55.314 134.576, 55.635 131.692, 58.536 128.966 C 61.047 126.608, 61.105 126.602, 64.421 128.387 C 68.803 130.747, 71.353 130.187, 71.992 126.724 C 72.674 123.031, 77.625 117, 79.975 117 C 81.062 117, 82.162 116.044, 82.563 114.750 C 87.425 99.074, 102.609 81.811, 118.226 74.205 C 131.170 67.900, 136.460 67, 160.567 67 C 184.297 67, 189.508 67.949, 202.999 74.731 C 217.655 82.098, 232.750 99.639, 237.437 114.750 C 237.838 116.044, 238.938 117, 240.025 117 C 242.375 117, 247.326 123.031, 248.008 126.724 C 248.647 130.187, 251.197 130.747, 255.579 128.387 C 258.895 126.602, 258.953 126.608, 261.464 128.966 C 264.365 131.692, 264.686 134.576, 262.443 137.777 C 260.611 140.394, 257.868 140.615, 254.514 138.417 C 251.739 136.599, 248 137.335, 248 139.699 C 248 142.230, 244.247 147.566, 241.629 148.759 C 240.298 149.366, 238.150 152.026, 236.855 154.671 C 234.504 159.472, 225.841 169.244, 223 170.299 C 221.361 170.908, 223.725 173.403, 232.107 179.911 C 247.299 191.705, 256.867 215.586, 253.994 234.537 C 253.374 238.630, 252.486 243.305, 252.022 244.925 C 250.584 249.937, 253.638 247.515, 260.565 238.146 C 268.443 227.492, 274.117 217.133, 278.447 205.500 C 284.402 189.501, 285.493 182.690, 285.497 161.500 C 285.500 141.269, 284.761 136.326, 279.287 120 C 265.344 78.414, 227.778 45.899, 184 37.525 C 175.478 35.895, 154.560 34.791, 148 35.625 M 115.635 105.016 C 109.134 108.249, 105.582 111.519, 102.474 117.130 C 99.827 121.910, 99.501 123.433, 99.509 131 C 99.515 137.333, 99.989 140.392, 101.369 143 C 104.120 148.200, 109.915 153.865, 115 156.324 C 119.397 158.450, 120.439 158.500, 160.500 158.500 C 200.645 158.500, 201.583 158.455, 205.500 156.335 C 210.250 153.763, 216.056 147.867, 218.631 143 C 220.011 140.392, 220.485 137.333, 220.491 131 C 220.499 123.509, 220.161 121.888, 217.641 117.341 C 214.835 112.280, 209.922 107.993, 203.119 104.673 C 200.143 103.220, 194.921 103.026, 159.619 103.058 C 122.089 103.091, 119.251 103.218, 115.635 105.016 M 153.550 106.919 C 152.565 108.513, 158.958 109.241, 166.871 108.436 C 174.116 107.698, 174.299 107.620, 170.500 106.887 C 164.873 105.801, 154.229 105.821, 153.550 106.919 M 125.455 121.455 C 123.286 123.623, 123 124.781, 123 131.382 C 123 138.264, 123.208 139.019, 125.635 140.927 C 129.041 143.607, 131.139 143.545, 133.826 140.686 C 135.669 138.724, 136 137.200, 136 130.686 C 136 124.333, 135.653 122.653, 134 121 C 131.325 118.325, 128.430 118.479, 125.455 121.455 M 186 121 C 184.336 122.664, 184 124.333, 184 130.927 C 184 138.300, 184.184 139, 186.635 140.927 C 190.049 143.613, 191.551 143.540, 194.545 140.545 C 196.718 138.373, 197 137.223, 197 130.545 C 197 122.138, 195.234 119, 190.500 119 C 189.125 119, 187.100 119.900, 186 121 M 227.746 251.192 C 226.781 253.011, 224.933 257.650, 223.639 261.500 C 222.345 265.350, 220.948 269.288, 220.536 270.250 C 219.488 272.695, 221.308 272.470, 225.770 269.603 C 230.428 266.610, 233.558 262.963, 232.193 262.119 C 231.638 261.776, 230.805 258.433, 230.342 254.690 L 229.500 247.884 227.746 251.192 M 89.498 255.081 C 89.092 258.611, 88.312 261.783, 87.765 262.130 C 86.389 263.001, 91.097 268.072, 95.453 270.411 C 97.410 271.462, 99.192 272.137, 99.411 271.911 C 100.139 271.162, 93.924 253.545, 92.063 251.081 L 90.236 248.661 89.498 255.081" stroke="none" fill="white" fill-rule="evenodd"/></svg>